<?xml version="1.0" encoding="UTF-8"?>
<svg id="Layer_2" data-name="Layer 2" xmlns="http://www.w3.org/2000/svg" viewBox="0 0 113.57 55.04">
  <defs>
    <style>
      .cls-1 {
        fill: #959595;
        font-family: Inter-Regular, Inter;
        font-size: 8px;
        font-variation-settings: 'wght' 400, 'slnt' 0;
        letter-spacing: -.03em;
      }

      .cls-2 {
        fill: #231f20;
      }
    </style>
  </defs>
  <g id="Layer_1-2" data-name="Layer 1">
    <g>
      <g>
        <path class="cls-2" d="m35.71,4.33c-3.55-2.16-7.59-3.23-12.11-3.23s-8.58,1.08-12.13,3.23c-3.55,2.16-6.35,5.24-8.4,9.26C1.02,17.6,0,22.4,0,27.99s1.02,10.37,3.07,14.39c2.05,4.02,4.85,7.11,8.4,9.27,3.55,2.16,7.6,3.23,12.13,3.23s8.55-1.08,12.11-3.23c3.55-2.16,6.35-5.24,8.4-9.26s3.07-8.82,3.07-14.41-1.02-10.39-3.07-14.41-4.85-7.1-8.4-9.26Zm1.58,34.44c-1.37,2.92-3.25,5.14-5.62,6.65-2.38,1.51-5.07,2.26-8.07,2.26s-5.71-.75-8.08-2.26c-2.37-1.51-4.24-3.72-5.61-6.65-1.37-2.92-2.06-6.52-2.06-10.78s.69-7.85,2.06-10.78c1.37-2.92,3.24-5.14,5.61-6.65,2.37-1.51,5.06-2.26,8.08-2.26s5.69.75,8.07,2.26c2.38,1.51,4.25,3.72,5.62,6.65,1.37,2.92,2.06,6.52,2.06,10.78s-.69,7.85-2.06,10.78Z"/>
        <rect class="cls-2" x="54.58" y="1.81" width="7.65" height="52.36"/>
        <path class="cls-2" d="m100.03,21.1c-.99-1.8-2.25-3.18-3.8-4.15-1.54-.97-3.2-1.64-4.96-2.01-1.76-.37-3.43-.55-5-.55-2.37,0-4.63.34-6.78,1.01s-4.04,1.75-5.69,3.22c-1.65,1.47-2.89,3.41-3.75,5.79l7.18,1.64c.56-1.38,1.58-2.64,3.06-3.77,1.47-1.13,3.5-1.7,6.07-1.7s4.33.61,5.59,1.84c1.25,1.23,1.88,2.96,1.88,5.19v.18c0,.92-.33,1.58-1,1.99s-1.73.7-3.2.88c-1.47.18-3.38.4-5.73.68-1.86.22-3.68.55-5.47.97-1.79.43-3.41,1.06-4.86,1.89-1.45.83-2.6,1.97-3.45,3.4-.85,1.43-1.28,3.26-1.28,5.47,0,2.57.58,4.75,1.75,6.52,1.17,1.77,2.76,3.12,4.77,4.05,2.01.93,4.26,1.39,6.75,1.39,2.16,0,4.02-.32,5.57-.95,1.55-.63,2.82-1.42,3.81-2.38.99-.96,1.73-1.93,2.22-2.92h.31v5.37h7.47v-26.08c0-2.86-.5-5.19-1.48-6.99Zm-6.16,18.91c0,1.55-.4,3-1.19,4.36-.79,1.36-1.94,2.45-3.45,3.29-1.51.83-3.32,1.25-5.43,1.25s-3.95-.48-5.34-1.45c-1.4-.96-2.1-2.39-2.1-4.28,0-1.36.36-2.46,1.09-3.29.72-.83,1.7-1.46,2.92-1.9s2.57-.76,4.05-.95c.63-.08,1.42-.19,2.35-.32.94-.13,1.9-.27,2.89-.43s1.87-.36,2.65-.59c.78-.23,1.3-.48,1.57-.75v5.06Z"/>
      </g>
      <text class="cls-1" transform="translate(101.51 6.91)"><tspan x="0" y="0">TM</tspan></text>
    </g>
  </g>
</svg>