<?xml version="1.0" encoding="UTF-8"?>
<svg id="Layer_2" data-name="Layer 2" xmlns="http://www.w3.org/2000/svg" viewBox="0 0 133.34 152.05">
  <defs>
    <style>
      .cls-1 {
        fill: #f15a29;
      }
    </style>
  </defs>
  <g id="Layer_1-2" data-name="Layer 1">
    <path class="cls-1" d="m100.92,9.14C90.88,3.05,79.47,0,66.7,0s-24.25,3.05-34.29,9.14c-10.05,6.1-17.96,14.82-23.74,26.16C2.89,46.65,0,60.23,0,76.03s2.89,29.32,8.67,40.69c5.78,11.37,13.7,20.1,23.74,26.2,10.04,6.09,21.47,9.14,34.29,9.14s24.17-3.05,34.22-9.14c10.04-6.09,17.96-14.81,23.74-26.16,5.78-11.35,8.67-24.92,8.67-40.72s-2.89-29.38-8.67-40.72c-5.78-11.35-13.7-20.07-23.74-26.16Zm4.48,97.35c-3.88,8.26-9.18,14.53-15.9,18.79-6.72,4.26-14.32,6.4-22.8,6.4s-16.14-2.13-22.84-6.4c-6.7-4.26-11.99-10.53-15.86-18.79-3.88-8.26-5.82-18.42-5.82-30.46s1.94-22.2,5.82-30.46c3.88-8.26,9.17-14.53,15.86-18.79,6.7-4.26,14.31-6.4,22.84-6.4s16.08,2.13,22.8,6.4c6.72,4.26,12.02,10.53,15.9,18.79,3.88,8.26,5.82,18.42,5.82,30.46s-1.94,22.2-5.82,30.46Z"/>
  </g>
</svg>